<svg xmlns="http://www.w3.org/2000/svg" viewBox="0 0 32 32" fill="none">
  <circle cx="16" cy="16" r="15" fill="#0a0a0a" stroke="#8b5cf6" stroke-width="1"/>
  <path d="M16 4C10.5 4 6 8.5 6 14c0 3.5 1.8 6.5 4.5 8.2V26a1 1 0 001 1h9a1 1 0 001-1v-3.8C24.2 20.5 26 17.5 26 14c0-5.5-4.5-10-10-10z" fill="#8b5cf6"/>
  <ellipse cx="12" cy="13.5" rx="2.5" ry="3" fill="#0a0a0a"/>
  <ellipse cx="20" cy="13.5" rx="2.5" ry="3" fill="#0a0a0a"/>
  <path d="M14 20.5V24" stroke="#0a0a0a" stroke-width="1.5" stroke-linecap="round"/>
  <path d="M18 20.5V24" stroke="#0a0a0a" stroke-width="1.5" stroke-linecap="round"/>
  <path d="M16 17c-1 0-1.8.5-2 1.2a.5.5 0 00.5.6h3a.5.5 0 00.5-.6c-.2-.7-1-1.2-2-1.2z" fill="#0a0a0a"/>
</svg>
